<svg xmlns="http://www.w3.org/2000/svg" xmlns:xlink="http://www.w3.org/1999/xlink" contentStyleType="text/css" height="265px" preserveAspectRatio="none" style="width:1689px;height:265px;background:#FFFFFF;" version="1.1" viewBox="0 0 1689 265" width="1689px" zoomAndPan="magnify"><title>Casos de Uso y Actores en Visual Studio Code</title><defs/><g><text fill="#000000" font-family="sans-serif" font-size="14" font-weight="bold" lengthAdjust="spacing" textLength="361.3682" x="657.2263" y="22.9951">Casos de Uso y Actores en Visual Studio Code</text><!--entity Developer--><g id="elem_Developer"><ellipse cx="831.7851" cy="51.2969" fill="#F1F1F1" rx="8" ry="8" style="stroke:#181818;stroke-width:0.5;"/><path d="M831.7851,59.2969 L831.7851,86.2969 M818.7851,67.2969 L844.7851,67.2969 M831.7851,86.2969 L818.7851,101.2969 M831.7851,86.2969 L844.7851,101.2969 " fill="none" style="stroke:#181818;stroke-width:0.5;"/><text fill="#000000" font-family="sans-serif" font-size="14" lengthAdjust="spacing" textLength="94.9102" x="784.33" y="115.792">Desarrollador</text></g><!--entity ProjectManager--><g id="elem_ProjectManager"><ellipse cx="155.7842" cy="51.2969" fill="#F1F1F1" rx="8" ry="8" style="stroke:#181818;stroke-width:0.5;"/><path d="M155.7842,59.2969 L155.7842,86.2969 M142.7842,67.2969 L168.7842,67.2969 M155.7842,86.2969 L142.7842,101.2969 M155.7842,86.2969 L168.7842,101.2969 " fill="none" style="stroke:#181818;stroke-width:0.5;"/><text fill="#000000" font-family="sans-serif" font-size="14" lengthAdjust="spacing" textLength="194.1885" x="58.69" y="115.792">Administrador de Proyectos</text></g><!--entity VersionControl--><g id="elem_VersionControl"><ellipse cx="1308.7908" cy="51.2969" fill="#F1F1F1" rx="8" ry="8" style="stroke:#181818;stroke-width:0.5;"/><path d="M1308.7908,59.2969 L1308.7908,86.2969 M1295.7908,67.2969 L1321.7908,67.2969 M1308.7908,86.2969 L1295.7908,101.2969 M1308.7908,86.2969 L1321.7908,101.2969 " fill="none" style="stroke:#181818;stroke-width:0.5;"/><text fill="#000000" font-family="sans-serif" font-size="14" lengthAdjust="spacing" textLength="264.1816" x="1176.7" y="115.792">Sistema de Control de Versiones (Git)</text></g><!--entity Plugins--><g id="elem_Plugins"><ellipse cx="1559.7849" cy="51.2969" fill="#F1F1F1" rx="8" ry="8" style="stroke:#181818;stroke-width:0.5;"/><path d="M1559.7849,59.2969 L1559.7849,86.2969 M1546.7849,67.2969 L1572.7849,67.2969 M1559.7849,86.2969 L1546.7849,101.2969 M1559.7849,86.2969 L1572.7849,101.2969 " fill="none" style="stroke:#181818;stroke-width:0.5;"/><text fill="#000000" font-family="sans-serif" font-size="14" lengthAdjust="spacing" textLength="151.9697" x="1483.8" y="115.792">Extensiones y Plugins</text></g><!--entity OS--><g id="elem_OS"><ellipse cx="555.7919" cy="51.2969" fill="#F1F1F1" rx="8" ry="8" style="stroke:#181818;stroke-width:0.5;"/><path d="M555.7919,59.2969 L555.7919,86.2969 M542.7919,67.2969 L568.7919,67.2969 M555.7919,86.2969 L542.7919,101.2969 M555.7919,86.2969 L568.7919,101.2969 " fill="none" style="stroke:#181818;stroke-width:0.5;"/><text fill="#000000" font-family="sans-serif" font-size="14" lengthAdjust="spacing" textLength="129.9238" x="490.83" y="115.792">Sistema Operativo</text></g><g id="elem_OpenProject"><ellipse cx="155.7875" cy="219.4244" fill="#F1F1F1" rx="149.7875" ry="32.3575" style="stroke:#181818;stroke-width:0.5;"/><text fill="#000000" font-family="sans-serif" font-size="14" lengthAdjust="spacing" textLength="270.04" x="20.7675" y="222.2711">Abrir un Proyecto o Carpeta de C&#243;digo</text></g><g id="elem_EditCode"><ellipse cx="440.7923" cy="219.4313" fill="#F1F1F1" rx="99.8223" ry="22.3645" style="stroke:#181818;stroke-width:0.5;"/><text fill="#000000" font-family="sans-serif" font-size="14" lengthAdjust="spacing" textLength="163.666" x="358.9593" y="222.278">Escribir y Editar C&#243;digo</text></g><g id="elem_DebugCode"><ellipse cx="671.7868" cy="219.4222" fill="#F1F1F1" rx="96.1268" ry="21.6254" style="stroke:#181818;stroke-width:0.5;"/><text fill="#000000" font-family="sans-serif" font-size="14" lengthAdjust="spacing" textLength="155.4834" x="594.0451" y="222.2689">Depuraci&#243;n de C&#243;digo</text></g><g id="elem_VersionControlUse"><ellipse cx="1308.7939" cy="219.4256" fill="#F1F1F1" rx="91.7939" ry="20.7588" style="stroke:#181818;stroke-width:0.5;"/><text fill="#000000" font-family="sans-serif" font-size="14" lengthAdjust="spacing" textLength="145.79" x="1235.8988" y="222.2723">Control de Versiones</text></g><g id="elem_ManageExtensions"><ellipse cx="1559.7904" cy="219.423" fill="#F1F1F1" rx="124.0304" ry="27.2061" style="stroke:#181818;stroke-width:0.5;"/><text fill="#000000" font-family="sans-serif" font-size="14" lengthAdjust="spacing" textLength="215.9336" x="1451.8236" y="222.2696">Administraci&#243;n de Extensiones</text></g><g id="elem_ConfigureSettings"><ellipse cx="992.786" cy="219.4241" fill="#F1F1F1" rx="189.686" ry="40.3372" style="stroke:#181818;stroke-width:0.5;"/><text fill="#000000" font-family="sans-serif" font-size="14" lengthAdjust="spacing" textLength="352.3721" x="816.6" y="222.2708">Configuraci&#243;n de Preferencias y Atajos de Teclado</text></g><!--link Developer to OpenProject--><g id="link_Developer_OpenProject"><path d="M783.95,91.1069 C744.69,98.6269 687.64,109.5569 637.79,119.0969 C498.24,145.7869 462.76,149.5569 323.79,179.0969 C301.23,183.8869 282.8842,187.9984 260.0842,193.2984 " fill="none" id="Developer-to-OpenProject" style="stroke:#181818;stroke-width:1.0;"/><polygon fill="#181818" points="254.24,194.6569,263.9119,196.5152,259.1101,193.5248,262.1006,188.723,254.24,194.6569" style="stroke:#181818;stroke-width:1.0;"/></g><!--link Developer to EditCode--><g id="link_Developer_EditCode"><path d="M783.84,98.6769 C710.23,124.3769 575.5449,171.3898 499.1549,198.0498 " fill="none" id="Developer-to-EditCode" style="stroke:#181818;stroke-width:1.0;"/><polygon fill="#181818" points="493.49,200.0269,503.3054,200.8379,498.2108,198.3793,500.6693,193.2847,493.49,200.0269" style="stroke:#181818;stroke-width:1.0;"/></g><!--link Developer to DebugCode--><g id="link_Developer_DebugCode"><path d="M788.07,119.2369 C758.27,144.6569 724.5252,173.4434 700.1952,194.1934 " fill="none" id="Developer-to-DebugCode" style="stroke:#181818;stroke-width:1.0;"/><polygon fill="#181818" points="695.63,198.0869,705.0734,195.2902,699.4343,194.8423,699.8822,189.2032,695.63,198.0869" style="stroke:#181818;stroke-width:1.0;"/></g><!--link Developer to VersionControlUse--><g id="link_Developer_VersionControlUse"><path d="M879.51,93.1169 C950.06,109.9469 1086.08,143.6369 1199.79,179.0969 C1220.82,185.6469 1238.1714,191.7187 1257.5914,198.8887 " fill="none" id="Developer-to-VersionControlUse" style="stroke:#181818;stroke-width:1.0;"/><polygon fill="#181818" points="1263.22,200.9669,1256.1625,194.0973,1258.5295,199.2351,1253.3916,201.6021,1263.22,200.9669" style="stroke:#181818;stroke-width:1.0;"/></g><!--link Developer to ManageExtensions--><g id="link_Developer_ManageExtensions"><path d="M879.59,88.1169 C979.94,101.4669 1219.66,135.3569 1417.79,179.0969 C1440.77,184.1669 1459.7917,189.061 1482.1417,195.311 " fill="none" id="Developer-to-ManageExtensions" style="stroke:#181818;stroke-width:1.0;"/><polygon fill="#181818" points="1487.92,196.9269,1480.3298,190.6509,1483.1047,195.5803,1478.1753,198.3553,1487.92,196.9269" style="stroke:#181818;stroke-width:1.0;"/></g><!--link Developer to ConfigureSettings--><g id="link_Developer_ConfigureSettings"><path d="M875.78,119.2369 C898.03,138.1069 920.4338,157.0864 942.8638,176.1064 " fill="none" id="Developer-to-ConfigureSettings" style="stroke:#181818;stroke-width:1.0;"/><polygon fill="#181818" points="947.44,179.9869,943.1627,171.1153,943.6265,176.7531,937.9887,177.2169,947.44,179.9869" style="stroke:#181818;stroke-width:1.0;"/></g><!--link ProjectManager to OpenProject--><g id="link_ProjectManager_OpenProject"><path d="M155.79,119.2369 C155.79,140.3969 155.79,160.5769 155.79,180.7269 " fill="none" id="ProjectManager-to-OpenProject" style="stroke:#181818;stroke-width:1.0;"/><polygon fill="#181818" points="155.79,186.7269,159.79,177.7269,155.79,181.7269,151.79,177.7269,155.79,186.7269" style="stroke:#181818;stroke-width:1.0;"/></g><!--link VersionControl to VersionControlUse--><g id="link_VersionControl_VersionControlUse"><path d="M1308.79,119.2369 C1308.79,144.8069 1308.79,171.7369 1308.79,192.4769 " fill="none" id="VersionControl-to-VersionControlUse" style="stroke:#181818;stroke-width:1.0;"/><polygon fill="#181818" points="1308.79,198.4769,1312.79,189.4769,1308.79,193.4769,1304.79,189.4769,1308.79,198.4769" style="stroke:#181818;stroke-width:1.0;"/></g><!--link Plugins to ManageExtensions--><g id="link_Plugins_ManageExtensions"><path d="M1559.79,119.2369 C1559.79,142.2869 1559.79,165.3069 1559.79,185.9969 " fill="none" id="Plugins-to-ManageExtensions" style="stroke:#181818;stroke-width:1.0;"/><polygon fill="#181818" points="1559.79,191.9969,1563.79,182.9969,1559.79,186.9969,1555.79,182.9969,1559.79,191.9969" style="stroke:#181818;stroke-width:1.0;"/></g><!--link OS to OpenProject--><g id="link_OS_OpenProject"><path d="M490.63,104.1769 C420.68,128.0469 315.1985,164.0393 240.3485,189.5793 " fill="none" id="OS-to-OpenProject" style="stroke:#181818;stroke-width:1.0;"/><polygon fill="#181818" points="234.67,191.5169,244.4795,192.3962,239.4021,189.9022,241.8961,184.8248,234.67,191.5169" style="stroke:#181818;stroke-width:1.0;"/></g><!--link OS to EditCode--><g id="link_OS_EditCode"><path d="M524.36,119.2369 C503.22,144.3369 479.9675,171.9397 462.4475,192.7197 " fill="none" id="OS-to-EditCode" style="stroke:#181818;stroke-width:1.0;"/><polygon fill="#181818" points="458.58,197.3069,467.4394,193.0045,461.8029,193.4842,461.3232,187.8478,458.58,197.3069" style="stroke:#181818;stroke-width:1.0;"/></g><!--link OS to DebugCode--><g id="link_OS_DebugCode"><path d="M587.49,119.2369 C608.95,144.4969 632.6347,172.3548 650.2847,193.1248 " fill="none" id="OS-to-DebugCode" style="stroke:#181818;stroke-width:1.0;"/><polygon fill="#181818" points="654.17,197.6969,651.3901,188.2485,650.9322,193.8868,645.2939,193.4289,654.17,197.6969" style="stroke:#181818;stroke-width:1.0;"/></g><!--link OS to ConfigureSettings--><g id="link_OS_ConfigureSettings"><path d="M621.21,102.3769 C691.57,124.3569 798.7629,157.8278 881.6729,183.7278 " fill="none" id="OS-to-ConfigureSettings" style="stroke:#181818;stroke-width:1.0;"/><polygon fill="#181818" points="887.4,185.5169,880.0021,179.0152,882.6274,184.026,877.6167,186.6513,887.4,185.5169" style="stroke:#181818;stroke-width:1.0;"/></g><!--SRC=[TLB1Ri8m3BtdAonEsu5Vc8Gesca2gOExQKrbr2MLawBrk_W4Vcn96rf2sIsstxEVN-pOrGHhjCP2IR2t1ZfO5Su8MI0D1xOjrf2xjcG3QrEIKXZAiCZ8eeYfQooDB00jP7IXsZGaTyYg_67Drac0XFuxCHtvcktnFZhxw0irLXCfzmJwmG1V6-tyXF0ya5Wssgjw-sJttlDZBgBk_Csl8nsn7Upgjc8Tvmtlvq5RhnWTNqmFskPAjPOAjEGNE0eBj7eK3ju4b8RSeEzsBRcAl8PqN6ZYRsmXVFGjEjYKx50IIaZrbexuZ9fMiE3RLJ_tp-ZOLYdwbJqlZDdR1yxq9UEK1yDwzl0VOzOc0qzSFIhS2Pr8I1UCmUsLm_DmITzKXCFe6zvfb9Dph2khr7Wgi5n-9DwbbT6YD3sPaURdYwVrsMff-ONGz4PdQbKwyHyHAbxUQmrgcy_wnjIuVeodlMDYflWF]--></g></svg>